<?xml version="1.0" encoding="UTF-8" standalone="no"?><svg xmlns="http://www.w3.org/2000/svg" xmlns:xlink="http://www.w3.org/1999/xlink" contentScriptType="application/ecmascript" contentStyleType="text/css" height="816px" preserveAspectRatio="none" style="width:741px;height:816px;" version="1.1" viewBox="0 0 741 816" width="741px" zoomAndPan="magnify"><defs><filter height="300%" id="f1pzhqislcl68g" width="300%" x="-1" y="-1"><feGaussianBlur result="blurOut" stdDeviation="2.0"/><feColorMatrix in="blurOut" result="blurOut2" type="matrix" values="0 0 0 0 0 0 0 0 0 0 0 0 0 0 0 0 0 0 .4 0"/><feOffset dx="4.0" dy="4.0" in="blurOut2" result="blurOut3"/><feBlend in="SourceGraphic" in2="blurOut3" mode="normal"/></filter></defs><g><rect fill="#DDDDDD" height="804.1953" rx="10" ry="10" style="stroke:#A80036;stroke-width:1.0;" width="62" x="326.5" y="6"/><text fill="#000000" font-family="sans-serif" font-size="13" font-weight="bold" lengthAdjust="spacing" textLength="48" x="333.5" y="19.4951">Service</text><rect fill="#FFFFFF" filter="url(#f1pzhqislcl68g)" height="538.2734" style="stroke:#A80036;stroke-width:1.0;" width="10" x="352.5" y="166.3125"/><rect fill="#FFFFFF" filter="url(#f1pzhqislcl68g)" height="102.0547" style="stroke:#A80036;stroke-width:1.0;" width="10" x="357.5" y="440.125"/><rect fill="#FFFFFF" filter="url(#f1pzhqislcl68g)" height="35.3516" style="stroke:#A80036;stroke-width:1.0;" width="10" x="357.5" y="669.2344"/><rect fill="#FFFFFF" filter="url(#f1pzhqislcl68g)" height="256.8125" rx="10" ry="10" style="stroke:#000000;stroke-width:2.0;" width="714" x="10" y="300.3672"/><line style="stroke:#A80036;stroke-width:1.0;stroke-dasharray:5.0,5.0;" x1="37" x2="37" y1="89.6094" y2="722.5859"/><line style="stroke:#A80036;stroke-width:1.0;stroke-dasharray:5.0,5.0;" x1="357.5" x2="357.5" y1="89.6094" y2="722.5859"/><line style="stroke:#A80036;stroke-width:1.0;stroke-dasharray:5.0,5.0;" x1="689" x2="689" y1="89.6094" y2="722.5859"/><text fill="#000000" font-family="sans-serif" font-size="14" lengthAdjust="spacing" textLength="29" x="20" y="86.5332">User</text><ellipse cx="37.5" cy="15" fill="#FEFECE" filter="url(#f1pzhqislcl68g)" rx="8" ry="8" style="stroke:#A80036;stroke-width:2.0;"/><path d="M37.5,23 L37.5,50 M24.5,31 L50.5,31 M37.5,50 L24.5,65 M37.5,50 L50.5,65 " fill="none" filter="url(#f1pzhqislcl68g)" style="stroke:#A80036;stroke-width:2.0;"/><text fill="#000000" font-family="sans-serif" font-size="14" lengthAdjust="spacing" textLength="29" x="20" y="736.1191">User</text><ellipse cx="37.5" cy="749.1953" fill="#FEFECE" filter="url(#f1pzhqislcl68g)" rx="8" ry="8" style="stroke:#A80036;stroke-width:2.0;"/><path d="M37.5,757.1953 L37.5,784.1953 M24.5,765.1953 L50.5,765.1953 M37.5,784.1953 L24.5,799.1953 M37.5,784.1953 L50.5,799.1953 " fill="none" filter="url(#f1pzhqislcl68g)" style="stroke:#A80036;stroke-width:2.0;"/><rect fill="#FEFECE" filter="url(#f1pzhqislcl68g)" height="31.6094" rx="10" ry="10" style="stroke:#A80036;stroke-width:1.5;" width="50" x="330.5" y="53"/><text fill="#000000" font-family="sans-serif" font-size="14" lengthAdjust="spacing" textLength="36" x="337.5" y="74.5332">Client</text><rect fill="#FEFECE" filter="url(#f1pzhqislcl68g)" height="31.6094" rx="10" ry="10" style="stroke:#A80036;stroke-width:1.5;" width="50" x="330.5" y="721.5859"/><text fill="#000000" font-family="sans-serif" font-size="14" lengthAdjust="spacing" textLength="36" x="337.5" y="743.1191">Client</text><text fill="#000000" font-family="sans-serif" font-size="14" lengthAdjust="spacing" textLength="42" x="665.5" y="86.5332">Server</text><path d="M669,44 L669,68 M669,56 L686,56 " fill="none" filter="url(#f1pzhqislcl68g)" style="stroke:#A80036;stroke-width:2.0;"/><ellipse cx="698" cy="56" fill="#FEFECE" filter="url(#f1pzhqislcl68g)" rx="12" ry="12" style="stroke:#A80036;stroke-width:2.0;"/><text fill="#000000" font-family="sans-serif" font-size="14" lengthAdjust="spacing" textLength="42" x="665.5" y="736.1191">Server</text><path d="M669,743.1953 L669,767.1953 M669,755.1953 L686,755.1953 " fill="none" filter="url(#f1pzhqislcl68g)" style="stroke:#A80036;stroke-width:2.0;"/><ellipse cx="698" cy="755.1953" fill="#FEFECE" filter="url(#f1pzhqislcl68g)" rx="12" ry="12" style="stroke:#A80036;stroke-width:2.0;"/><rect fill="#FFFFFF" filter="url(#f1pzhqislcl68g)" height="538.2734" style="stroke:#A80036;stroke-width:1.0;" width="10" x="352.5" y="166.3125"/><rect fill="#FFFFFF" filter="url(#f1pzhqislcl68g)" height="102.0547" style="stroke:#A80036;stroke-width:1.0;" width="10" x="357.5" y="440.125"/><rect fill="#FFFFFF" filter="url(#f1pzhqislcl68g)" height="35.3516" style="stroke:#A80036;stroke-width:1.0;" width="10" x="357.5" y="669.2344"/><rect fill="#EEEEEE" filter="url(#f1pzhqislcl68g)" height="3" style="stroke:#EEEEEE;stroke-width:1.0;" width="734" x="0" y="120.7852"/><line style="stroke:#000000;stroke-width:1.0;" x1="0" x2="734" y1="120.7852" y2="120.7852"/><line style="stroke:#000000;stroke-width:1.0;" x1="0" x2="734" y1="123.7852" y2="123.7852"/><rect fill="#EEEEEE" filter="url(#f1pzhqislcl68g)" height="24.3516" style="stroke:#000000;stroke-width:2.0;" width="97" x="318.5" y="109.6094"/><text fill="#000000" font-family="sans-serif" font-size="13" font-weight="bold" lengthAdjust="spacing" textLength="79" x="324.5" y="127.1045">Initialization</text><polygon fill="#A80036" points="340.5,162.3125,350.5,166.3125,340.5,170.3125,344.5,166.3125" style="stroke:#A80036;stroke-width:1.0;"/><line style="stroke:#A80036;stroke-width:2.0;" x1="37.5" x2="346.5" y1="166.3125" y2="166.3125"/><text fill="#000000" font-family="sans-serif" font-size="13" font-weight="bold" lengthAdjust="spacing" textLength="29" x="44.5" y="161.4561">[001]</text><text fill="#000000" font-family="sans-serif" font-size="13" lengthAdjust="spacing" textLength="161" x="77.5" y="161.4561">Navigates to the Application</text><rect fill="#EEEEEE" filter="url(#f1pzhqislcl68g)" height="3" style="stroke:#EEEEEE;stroke-width:1.0;" width="734" x="0" y="195.4883"/><line style="stroke:#000000;stroke-width:1.0;" x1="0" x2="734" y1="195.4883" y2="195.4883"/><line style="stroke:#000000;stroke-width:1.0;" x1="0" x2="734" y1="198.4883" y2="198.4883"/><rect fill="#EEEEEE" filter="url(#f1pzhqislcl68g)" height="24.3516" style="stroke:#000000;stroke-width:2.0;" width="104" x="315" y="184.3125"/><text fill="#000000" font-family="sans-serif" font-size="13" font-weight="bold" lengthAdjust="spacing" textLength="86" x="321" y="201.8076">Configuration</text><polygon fill="#A80036" points="340.5,237.0156,350.5,241.0156,340.5,245.0156,344.5,241.0156" style="stroke:#A80036;stroke-width:1.0;"/><line style="stroke:#A80036;stroke-width:2.0;" x1="37.5" x2="346.5" y1="241.0156" y2="241.0156"/><text fill="#000000" font-family="sans-serif" font-size="13" font-weight="bold" lengthAdjust="spacing" textLength="29" x="44.5" y="236.1592">[002]</text><text fill="#000000" font-family="sans-serif" font-size="13" lengthAdjust="spacing" textLength="215" x="77.5" y="236.1592">Submits the IP and Port of the Server</text><rect fill="#EEEEEE" filter="url(#f1pzhqislcl68g)" height="3" style="stroke:#EEEEEE;stroke-width:1.0;" width="734" x="0" y="270.1914"/><line style="stroke:#000000;stroke-width:1.0;" x1="0" x2="734" y1="270.1914" y2="270.1914"/><line style="stroke:#000000;stroke-width:1.0;" x1="0" x2="734" y1="273.1914" y2="273.1914"/><rect fill="#EEEEEE" filter="url(#f1pzhqislcl68g)" height="24.3516" style="stroke:#000000;stroke-width:2.0;" width="71" x="331.5" y="259.0156"/><text fill="#000000" font-family="sans-serif" font-size="13" font-weight="bold" lengthAdjust="spacing" textLength="53" x="337.5" y="276.5107">Runtime</text><path d="M20,300.3672 L83,300.3672 L83,308.3672 L73,318.3672 L10,318.3672 L10,310.3672 " fill="#EEEEEE" style="stroke:#000000;stroke-width:1.0;"/><rect fill="none" height="256.8125" rx="10" ry="10" style="stroke:#000000;stroke-width:2.0;" width="714" x="10" y="300.3672"/><text fill="#000000" font-family="sans-serif" font-size="13" font-weight="bold" lengthAdjust="spacing" textLength="28" x="25" y="314.8623">loop</text><text fill="#000000" font-family="sans-serif" font-size="11" font-weight="bold" lengthAdjust="spacing" textLength="27" x="98" y="313.7861">[0..n]</text><polygon fill="#A80036" points="340.5,337.0703,350.5,341.0703,340.5,345.0703,344.5,341.0703" style="stroke:#A80036;stroke-width:1.0;"/><line style="stroke:#A80036;stroke-width:2.0;" x1="37.5" x2="346.5" y1="341.0703" y2="341.0703"/><text fill="#000000" font-family="sans-serif" font-size="13" font-weight="bold" lengthAdjust="spacing" textLength="29" x="44.5" y="336.2139">[003]</text><text fill="#000000" font-family="sans-serif" font-size="13" lengthAdjust="spacing" textLength="258" x="77.5" y="336.2139">Selects a starting point in the Map Fragment</text><polygon fill="#A80036" points="340.5,367.4219,350.5,371.4219,340.5,375.4219,344.5,371.4219" style="stroke:#A80036;stroke-width:1.0;"/><line style="stroke:#A80036;stroke-width:2.0;" x1="37.5" x2="346.5" y1="371.4219" y2="371.4219"/><text fill="#000000" font-family="sans-serif" font-size="13" font-weight="bold" lengthAdjust="spacing" textLength="29" x="44.5" y="366.5654">[004]</text><text fill="#000000" font-family="sans-serif" font-size="13" lengthAdjust="spacing" textLength="253" x="77.5" y="366.5654">Selects a ending point in the Map Fragment</text><polygon fill="#A80036" points="340.5,397.7734,350.5,401.7734,340.5,405.7734,344.5,401.7734" style="stroke:#A80036;stroke-width:1.0;"/><line style="stroke:#A80036;stroke-width:2.0;" x1="37.5" x2="346.5" y1="401.7734" y2="401.7734"/><text fill="#000000" font-family="sans-serif" font-size="13" font-weight="bold" lengthAdjust="spacing" textLength="29" x="44.5" y="396.917">[005]</text><text fill="#000000" font-family="sans-serif" font-size="13" lengthAdjust="spacing" textLength="185" x="77.5" y="396.917">Presses "Get Directions" button</text><line style="stroke:#A80036;stroke-width:2.0;" x1="362.5" x2="409.5" y1="427.125" y2="427.125"/><line style="stroke:#A80036;stroke-width:2.0;" x1="409.5" x2="409.5" y1="427.125" y2="440.125"/><line style="stroke:#A80036;stroke-width:2.0;" x1="368.5" x2="409.5" y1="440.125" y2="440.125"/><polygon fill="#A80036" points="378.5,436.125,368.5,440.125,378.5,444.125,374.5,440.125" style="stroke:#A80036;stroke-width:1.0;"/><text fill="#000000" font-family="sans-serif" font-size="13" font-weight="bold" lengthAdjust="spacing" textLength="29" x="374.5" y="422.2686">[006]</text><text fill="#000000" font-family="sans-serif" font-size="13" lengthAdjust="spacing" textLength="114" x="407.5" y="422.2686">Creates AsyncTask</text><polygon fill="#A80036" points="677.5,471.4766,687.5,475.4766,677.5,479.4766,681.5,475.4766" style="stroke:#A80036;stroke-width:1.0;"/><line style="stroke:#A80036;stroke-width:2.0;" x1="367.5" x2="683.5" y1="475.4766" y2="475.4766"/><text fill="#000000" font-family="sans-serif" font-size="13" font-weight="bold" lengthAdjust="spacing" textLength="29" x="374.5" y="470.6201">[007]</text><text fill="#000000" font-family="sans-serif" font-size="13" lengthAdjust="spacing" textLength="166" x="407.5" y="470.6201">Queries for Directions Result</text><polygon fill="#A80036" points="378.5,501.8281,368.5,505.8281,378.5,509.8281,374.5,505.8281" style="stroke:#A80036;stroke-width:1.0;"/><line style="stroke:#A80036;stroke-width:2.0;stroke-dasharray:2.0,2.0;" x1="372.5" x2="688.5" y1="505.8281" y2="505.8281"/><text fill="#000000" font-family="sans-serif" font-size="13" font-weight="bold" lengthAdjust="spacing" textLength="29" x="384.5" y="500.9717">[008]</text><text fill="#000000" font-family="sans-serif" font-size="13" lengthAdjust="spacing" textLength="183" x="417.5" y="500.9717">Responds the Directions Result</text><line style="stroke:#A80036;stroke-width:2.0;" x1="367.5" x2="409.5" y1="541.1797" y2="541.1797"/><line style="stroke:#A80036;stroke-width:2.0;" x1="409.5" x2="409.5" y1="541.1797" y2="554.1797"/><line style="stroke:#A80036;stroke-width:2.0;" x1="362.5" x2="409.5" y1="554.1797" y2="554.1797"/><polygon fill="#A80036" points="372.5,550.1797,362.5,554.1797,372.5,558.1797,368.5,554.1797" style="stroke:#A80036;stroke-width:1.0;"/><text fill="#000000" font-family="sans-serif" font-size="13" font-weight="bold" lengthAdjust="spacing" textLength="29" x="374.5" y="536.3232">[009]</text><text fill="#000000" font-family="sans-serif" font-size="13" lengthAdjust="spacing" textLength="270" x="407.5" y="536.3232">Draws the Directions polyline in Map Fragment</text><rect fill="#EEEEEE" filter="url(#f1pzhqislcl68g)" height="3" style="stroke:#EEEEEE;stroke-width:1.0;" width="734" x="0" y="585.3555"/><line style="stroke:#000000;stroke-width:1.0;" x1="0" x2="734" y1="585.3555" y2="585.3555"/><line style="stroke:#000000;stroke-width:1.0;" x1="0" x2="734" y1="588.3555" y2="588.3555"/><rect fill="#EEEEEE" filter="url(#f1pzhqislcl68g)" height="24.3516" style="stroke:#000000;stroke-width:2.0;" width="82" x="326" y="574.1797"/><text fill="#000000" font-family="sans-serif" font-size="13" font-weight="bold" lengthAdjust="spacing" textLength="64" x="332" y="591.6748">Shutdown</text><polygon fill="#A80036" points="340.5,626.8828,350.5,630.8828,340.5,634.8828,344.5,630.8828" style="stroke:#A80036;stroke-width:1.0;"/><line style="stroke:#A80036;stroke-width:2.0;" x1="37.5" x2="346.5" y1="630.8828" y2="630.8828"/><text fill="#000000" font-family="sans-serif" font-size="13" font-weight="bold" lengthAdjust="spacing" textLength="29" x="44.5" y="626.0264">[010]</text><text fill="#000000" font-family="sans-serif" font-size="13" lengthAdjust="spacing" textLength="125" x="77.5" y="626.0264">Exists the application</text><line style="stroke:#A80036;stroke-width:2.0;" x1="362.5" x2="409.5" y1="656.2344" y2="656.2344"/><line style="stroke:#A80036;stroke-width:2.0;" x1="409.5" x2="409.5" y1="656.2344" y2="669.2344"/><line style="stroke:#A80036;stroke-width:2.0;" x1="368.5" x2="409.5" y1="669.2344" y2="669.2344"/><polygon fill="#A80036" points="378.5,665.2344,368.5,669.2344,378.5,673.2344,374.5,669.2344" style="stroke:#A80036;stroke-width:1.0;"/><text fill="#000000" font-family="sans-serif" font-size="13" font-weight="bold" lengthAdjust="spacing" textLength="29" x="374.5" y="651.3779">[011]</text><text fill="#000000" font-family="sans-serif" font-size="13" lengthAdjust="spacing" textLength="114" x="407.5" y="651.3779">Creates AsyncTask</text><polygon fill="#A80036" points="677.5,700.5859,687.5,704.5859,677.5,708.5859,681.5,704.5859" style="stroke:#A80036;stroke-width:1.0;"/><line style="stroke:#A80036;stroke-width:2.0;" x1="357.5" x2="683.5" y1="704.5859" y2="704.5859"/><text fill="#000000" font-family="sans-serif" font-size="13" font-weight="bold" lengthAdjust="spacing" textLength="29" x="364.5" y="699.7295">[012]</text><text fill="#000000" font-family="sans-serif" font-size="13" lengthAdjust="spacing" textLength="143" x="397.5" y="699.7295">Sends "terminate" signal</text><!--MD5=[d0ecc45327f5d5679cfcbb5159b49298]
@startuml
skinparam sequenceArrowThickness 2
skinparam roundcorner 20
actor User
box Service
participant Client
end box
boundary Server
autonumber "<b>[000]"

== Initialization ==
User -> Client : Navigates to the Application
activate Client

== Configuration ==
User -> Client : Submits the IP and Port of the Server

== Runtime ==
loop 0..n
User -> Client : Selects a starting point in the Map Fragment
User -> Client : Selects a ending point in the Map Fragment
User -> Client : Presses "Get Directions" button
Client -> Client : Creates AsyncTask
activate Client
Client -> Server : Queries for Directions Result
Server - -> Client : Responds the Directions Result
Client -> Client : Draws the Directions polyline in Map Fragment
deactivate Client
end

== Shutdown ==
User -> Client : Exists the application
Client -> Client : Creates AsyncTask
activate Client
Client -> Server : Sends "terminate" signal
deactivate Client
deactivate Client

@enduml

PlantUML version 1.2021.01(Tue Feb 02 09:55:08 EET 2021)
(GPL source distribution)
Java Runtime: OpenJDK Runtime Environment
JVM: Dynamic Code Evolution 64-Bit Server VM
Default Encoding: Cp1252
Language: en
Country: US
--></g></svg>